<svg width="141" height="51" viewBox="0 0 141 51" fill="none" xmlns="http://www.w3.org/2000/svg">
<path d="M17.904 13.656C17.808 13.272 17.712 12.92 17.616 12.6C17.52 12.28 17.424 11.976 17.328 11.688C16.624 11.88 16.048 12.216 15.6 12.696C15.152 13.176 14.928 13.72 14.928 14.328C14.928 14.872 14.992 15.32 15.12 15.672L16.464 16.056C18.096 16.536 19.744 17.144 21.408 17.88C23.072 18.584 24.592 19.448 25.968 20.472C27.376 21.464 28.512 22.648 29.376 24.024C30.24 25.368 30.672 26.904 30.672 28.632C30.672 32.568 29.568 35.688 27.36 37.992C25.184 40.296 22.096 41.624 18.096 41.976C17.84 42.008 17.568 42.024 17.28 42.024C17.024 42.056 16.768 42.072 16.512 42.072C15.296 42.072 14.048 41.896 12.768 41.544C11.488 41.224 10.176 40.712 8.832 40.008C7.264 39.144 5.952 38.296 4.896 37.464C3.84 36.6 2.976 35.544 2.304 34.296C1.664 33.048 1.12 31.432 0.671997 29.448L8.688 26.376L13.488 28.776C13.68 29.608 13.904 30.328 14.16 30.936C16.112 30.648 17.088 29.672 17.088 28.008C17.088 27.752 17.056 27.528 16.992 27.336C16.96 27.112 16.912 26.904 16.848 26.712C16.848 26.712 16.656 26.6 16.272 26.376C15.888 26.152 15.536 26.008 15.216 25.944C12.112 25.176 9.536 24.264 7.488 23.208C5.472 22.152 3.968 20.808 2.976 19.176C2.016 17.544 1.536 15.48 1.536 12.984C1.536 10.872 2.032 8.952 3.024 7.224C4.016 5.464 5.392 4.04 7.152 2.952C8.944 1.832 10.992 1.176 13.296 0.983999C13.584 0.952 13.856 0.935999 14.112 0.935999C14.4 0.903999 14.672 0.888 14.928 0.888C16.368 0.888 17.632 1.08 18.72 1.464C19.84 1.848 21.12 2.376 22.56 3.048C24.032 3.72 25.264 4.472 26.256 5.304C27.248 6.136 28.064 7.176 28.704 8.424C29.376 9.64 29.936 11.208 30.384 13.128L22.704 16.056L17.904 13.656ZM13.056 31.512C11.776 31.512 10.752 31.128 9.984 30.36C9.216 29.592 8.656 28.488 8.304 27.048L1.2 29.736C1.936 32.904 3.152 35.272 4.848 36.84C6.544 38.376 8.832 39.144 11.712 39.144C11.968 39.144 12.224 39.144 12.48 39.144C12.736 39.144 12.992 39.128 13.248 39.096C17.088 38.776 20.064 37.496 22.176 35.256C24.32 33.016 25.392 30.008 25.392 26.232C25.392 23.544 24.64 21.464 23.136 19.992C21.632 18.52 19.36 17.368 16.32 16.536L12.48 15.48C11.328 15.16 10.56 14.696 10.176 14.088C9.824 13.48 9.648 12.76 9.648 11.928C9.648 11.096 9.968 10.376 10.608 9.768C11.248 9.16 12.096 8.808 13.152 8.712C13.28 8.712 13.392 8.712 13.488 8.712C13.616 8.68 13.744 8.664 13.872 8.664C15.056 8.664 15.984 9 16.656 9.672C17.36 10.312 17.888 11.432 18.24 13.032L25.008 10.44C24.336 7.4 23.184 5.144 21.552 3.672C19.952 2.168 17.744 1.416 14.928 1.416C14.672 1.416 14.4 1.416 14.112 1.416C13.856 1.416 13.6 1.432 13.344 1.464C11.104 1.656 9.136 2.28 7.44 3.336C5.744 4.392 4.416 5.752 3.456 7.416C2.496 9.08 2.016 10.936 2.016 12.984C2.016 15.8 2.64 18.04 3.888 19.704C5.168 21.368 7.424 22.616 10.656 23.448L13.632 24.216C14.848 24.536 15.808 24.952 16.512 25.464C17.216 25.976 17.568 26.824 17.568 28.008C17.568 30.088 16.24 31.256 13.584 31.512H13.056Z" fill="black"/>
<path d="M59.8511 39.864C58.8271 40.28 57.7711 40.488 56.6831 40.488C55.6911 40.488 54.7791 40.344 53.9471 40.056C53.1151 39.8 52.4751 39.544 52.0271 39.288C50.6191 40.984 48.5551 41.96 45.8351 42.216C45.5791 42.248 45.3231 42.264 45.0671 42.264C44.8111 42.264 44.5551 42.264 44.2991 42.264C42.3151 42.264 40.4911 41.912 38.8271 41.208C37.1631 40.536 35.8191 39.512 34.7951 38.136C33.8031 36.728 33.3071 35 33.3071 32.952C33.3071 30.744 33.9151 28.984 35.1311 27.672C36.3791 26.36 38.2351 25.112 40.6991 23.928L38.2511 23.112L33.4511 20.712C34.2511 17.928 35.5471 15.832 37.3391 14.424C39.1631 13.016 41.2271 12.2 43.5311 11.976C43.8191 11.944 44.1071 11.928 44.3951 11.928C44.6831 11.896 44.9551 11.88 45.2111 11.88C47.5151 11.88 49.6111 12.312 51.4991 13.176C53.3871 14.008 54.8911 15.208 56.0111 16.776C57.1311 18.312 57.6911 20.12 57.6911 22.2V31.32L60.6191 32.76L59.8511 39.864ZM55.2431 31.176C54.4751 31.528 53.8991 31.704 53.5151 31.704C52.7791 31.704 52.4111 31.224 52.4111 30.264V19.8C52.4111 14.872 49.9311 12.408 44.9711 12.408C44.7471 12.408 44.5231 12.408 44.2991 12.408C44.0751 12.408 43.8351 12.424 43.5791 12.456C41.3711 12.68 39.4031 13.448 37.6751 14.76C35.9471 16.072 34.7311 17.976 34.0271 20.472L39.4031 22.248C39.7551 21.16 40.2351 20.28 40.8431 19.608C41.4831 18.936 42.2031 18.568 43.0031 18.504C43.0991 18.504 43.1951 18.504 43.2911 18.504C43.3871 18.472 43.4671 18.456 43.5311 18.456C44.2671 18.456 44.8271 18.632 45.2111 18.984C45.5951 19.336 45.7871 19.816 45.7871 20.424C45.7871 21.096 45.5791 21.64 45.1631 22.056C44.7471 22.44 44.1711 22.808 43.4351 23.16L41.2751 24.168C38.8111 25.32 36.9391 26.536 35.6591 27.816C34.4111 29.064 33.7871 30.776 33.7871 32.952C33.7871 37.24 35.8031 39.384 39.8351 39.384C40.0271 39.384 40.2191 39.384 40.4111 39.384C40.6031 39.384 40.7951 39.368 40.9871 39.336C42.5231 39.208 43.8511 38.84 44.9711 38.232C46.0911 37.624 46.9391 36.76 47.5151 35.64C47.7391 36.312 48.2191 36.84 48.9551 37.224C49.6911 37.608 50.5551 37.8 51.5471 37.8C52.6031 37.8 53.6111 37.592 54.5711 37.176L55.2431 31.176ZM42.3311 33.768C41.7871 33.768 41.3391 33.624 40.9871 33.336C40.6351 33.016 40.4591 32.568 40.4591 31.992C40.4591 30.616 41.1631 29.592 42.5711 28.92L43.5311 28.44C43.9791 28.216 44.4111 28.008 44.8271 27.816C45.2751 27.592 45.6111 27.352 45.8351 27.096V30.408C45.6751 31.4 45.2911 32.2 44.6831 32.808C44.0751 33.384 43.4031 33.704 42.6671 33.768H42.3311Z" fill="black"/>
<path d="M61.5581 43.752C62.9661 42.536 64.2621 41.272 65.4461 39.96C66.6301 38.68 67.5901 37.496 68.3261 36.408L60.3581 13.176L68.9021 12.408L73.7021 14.808L75.1901 19.8C75.4781 18.52 75.7181 17.304 75.9101 16.152C76.1341 15 76.3581 13.72 76.5821 12.312L84.5021 11.592L89.3021 13.992C88.4381 19.208 87.3341 23.96 85.9901 28.248C84.6461 32.536 82.9021 36.504 80.7581 40.152C78.6141 43.832 75.9261 47.352 72.6941 50.712L67.8941 48.312L61.5581 43.752ZM67.7981 47.64C70.9341 44.408 73.5421 41.016 75.6221 37.464C77.7021 33.88 79.3981 30.008 80.7101 25.848C82.0221 21.688 83.0781 17.128 83.8781 12.168L76.9661 12.792C76.5501 15.704 76.0381 18.472 75.4301 21.096C74.8221 23.688 74.0861 26.168 73.2221 28.536L68.5181 12.936L61.0301 13.608L68.8541 36.504C68.1181 37.624 67.1421 38.84 65.9261 40.152C64.7421 41.496 63.5421 42.68 62.3261 43.704L67.7981 47.64Z" fill="black"/>
<path d="M109.248 38.664V25.896L106.128 26.184V41.208L97.872 41.928L93.072 39.528V3.048L101.328 2.328L106.128 4.728V15.528L109.248 15.24V2.136L117.552 1.368L122.352 3.768V40.296L114.048 41.016L109.248 38.664ZM109.728 2.568V15.672L100.848 16.44V2.856L93.552 3.48V39L100.848 38.424V23.352L109.728 22.584V38.136L117.072 37.464V1.896L109.728 2.568Z" fill="black"/>
<path d="M127.934 38.856V12.456L131.197 12.216L127.838 10.536V2.376L135.854 1.704L140.654 4.104V12.264L137.245 12.552L140.51 14.184V40.536L132.734 41.208L127.934 38.856ZM128.318 2.808V10.008L135.374 9.432V2.232L128.318 2.808ZM128.413 12.888V38.328L135.23 37.752V12.312L128.413 12.888Z" fill="black"/>
<path fill-rule="evenodd" clip-rule="evenodd" d="M55.2431 31.176C54.4751 31.528 53.8991 31.704 53.5151 31.704C52.7791 31.704 52.4111 31.224 52.4111 30.264V19.8C52.4111 14.872 49.9311 12.408 44.9711 12.408H44.2991C44.0751 12.408 43.8351 12.424 43.5791 12.456C41.3711 12.68 39.4031 13.448 37.6751 14.76C35.9471 16.072 34.7311 17.976 34.0271 20.472L39.4031 22.248C39.7551 21.16 40.2351 20.28 40.8431 19.608C41.4831 18.936 42.2031 18.568 43.0031 18.504H43.2911C43.3871 18.472 43.4671 18.456 43.5311 18.456C44.2671 18.456 44.8271 18.632 45.2111 18.984C45.5951 19.336 45.7871 19.816 45.7871 20.424C45.7871 21.096 45.5791 21.64 45.1631 22.056C44.7471 22.44 44.1711 22.808 43.4351 23.16L41.2751 24.168C38.8111 25.32 36.9391 26.536 35.6591 27.816C34.4111 29.064 33.7871 30.776 33.7871 32.952C33.7871 37.24 35.8031 39.384 39.8351 39.384H40.4111C40.6031 39.384 40.7951 39.368 40.9871 39.336C42.5231 39.208 43.8511 38.84 44.9711 38.232C46.0911 37.624 46.9391 36.76 47.5151 35.64C47.7391 36.312 48.2191 36.84 48.9551 37.224C49.6911 37.608 50.5551 37.8 51.5471 37.8C52.6031 37.8 53.6111 37.592 54.5711 37.176L55.2431 31.176ZM40.9871 33.336C41.3391 33.624 41.7871 33.768 42.3311 33.768H42.6671C43.4031 33.704 44.0751 33.384 44.6831 32.808C45.2911 32.2 45.6751 31.4 45.8351 30.408V27.096C45.6111 27.352 45.2751 27.592 44.8271 27.816C44.4111 28.008 43.9791 28.216 43.5311 28.44L42.5711 28.92C41.1631 29.592 40.4591 30.616 40.4591 31.992C40.4591 32.568 40.6351 33.016 40.9871 33.336Z" fill="white"/>
<path d="M67.7981 47.64C70.9341 44.408 73.5421 41.016 75.6221 37.464C77.7021 33.88 79.3981 30.008 80.7101 25.848C82.0221 21.688 83.0781 17.128 83.8781 12.168L76.9661 12.792C76.5501 15.704 76.0381 18.472 75.4301 21.096C74.8221 23.688 74.0861 26.168 73.2221 28.536L68.5181 12.936L61.0301 13.608L68.8541 36.504C68.1181 37.624 67.1421 38.84 65.9261 40.152C64.7421 41.496 63.5421 42.68 62.3261 43.704L67.7981 47.64Z" fill="white"/>
<path d="M109.728 2.568V15.672L100.848 16.44V2.856L93.552 3.48V39L100.848 38.424V23.352L109.728 22.584V38.136L117.072 37.464V1.896L109.728 2.568Z" fill="white"/>
<path d="M128.413 12.888V38.328L135.23 37.752V12.312L128.413 12.888Z" fill="white"/>
<path d="M128.318 2.808V10.008L135.374 9.432V2.232L128.318 2.808Z" fill="white"/>
<path d="M13.056 31.512C11.776 31.512 10.752 31.128 9.984 30.36C9.216 29.592 8.656 28.488 8.304 27.048L1.2 29.736C1.936 32.904 3.152 35.272 4.848 36.84C6.544 38.376 8.832 39.144 11.712 39.144H12.48C12.736 39.144 12.992 39.128 13.248 39.096C17.088 38.776 20.064 37.496 22.176 35.256C24.32 33.016 25.392 30.008 25.392 26.232C25.392 23.544 24.64 21.464 23.136 19.992C21.632 18.52 19.36 17.368 16.32 16.536L12.48 15.48C11.328 15.16 10.56 14.696 10.176 14.088C9.824 13.48 9.648 12.76 9.648 11.928C9.648 11.096 9.968 10.376 10.608 9.768C11.248 9.16 12.096 8.808 13.152 8.712H13.488C13.616 8.68 13.744 8.664 13.872 8.664C15.056 8.664 15.984 9 16.656 9.672C17.36 10.312 17.888 11.432 18.24 13.032L25.008 10.44C24.336 7.4 23.184 5.144 21.552 3.672C19.952 2.168 17.744 1.416 14.928 1.416H14.112C13.856 1.416 13.6 1.432 13.344 1.464C11.104 1.656 9.136 2.28 7.44 3.336C5.744 4.392 4.416 5.752 3.456 7.416C2.496 9.08 2.016 10.936 2.016 12.984C2.016 15.8 2.64 18.04 3.888 19.704C5.168 21.368 7.424 22.616 10.656 23.448L13.632 24.216C14.848 24.536 15.808 24.952 16.512 25.464C17.216 25.976 17.568 26.824 17.568 28.008C17.568 30.088 16.24 31.256 13.584 31.512H13.056Z" fill="white"/>
</svg>
