<?xml version="1.0" encoding="UTF-8"?><svg id="_лой_2" xmlns="http://www.w3.org/2000/svg" viewBox="0 0 129.53 129.53"><defs><style>.cls-1{fill:#fff;}.cls-2{fill:#b9c4e1;}</style></defs><g id="OBJECTS"><g><circle class="cls-2" cx="64.76" cy="64.76" r="64.76"/><ellipse class="cls-1" cx="64.76" cy="54.16" rx="25.19" ry="32.57"/><path class="cls-1" d="M64.76,89.14c-20.27,0-38.12,7.32-48.58,18.42,11.87,13.46,29.23,21.96,48.58,21.96s36.71-8.5,48.58-21.96c-10.46-11.11-28.31-18.42-48.58-18.42Z"/><rect class="cls-1" x="53.39" y="64.76" width="22.75" height="41.13" rx="9.62" ry="9.62"/><path class="cls-1" d="M43.05,55.67c1.47,4.22,.88,8.26-1.3,9.02-2.18,.76-5.14-2.05-6.61-6.27-1.47-4.22-.88-8.26,1.3-9.02,2.18-.76,5.14,2.05,6.61,6.27Z"/><path class="cls-1" d="M86.48,55.67c-1.47,4.22-.88,8.26,1.3,9.02,2.18,.76,5.14-2.05,6.61-6.27,1.47-4.22,.88-8.26-1.3-9.02-2.18-.76-5.14,2.05-6.61,6.27Z"/><path class="cls-1" d="M95.67,58.48c-.55-8.04-.28-16.29-2.87-23.93-2.91-8.58-9.6-15.91-18.09-19.07-8.49-3.16-18.62-1.85-25.72,3.78-2.49,1.97-4.72,4.8-4.47,7.97-4.31-1.46-9.11,1.6-11.13,5.68-2.01,4.08-1.91,8.84-1.63,13.38,.84,13.3,2.87,26.94-.73,39.76,11.04,.33,22.08,.67,33.12,1,3.53,.11,7.07,.21,10.61,.06,9.02-.39,18.36-2.42,26.85,.64-3.26-9.44-5.26-19.31-5.95-29.28Z"/></g></g></svg>