<svg width="40" height="14" viewBox="0 0 40 14" fill="none" xmlns="http://www.w3.org/2000/svg">
<path d="M7.25201 10.54C7.22001 10.54 7.184 10.54 7.144 10.54C7.112 10.548 7.076 10.552 7.03601 10.552C6.92401 10.552 6.816 10.54 6.712 10.516C6.60801 10.5 6.512 10.476 6.424 10.444C6.2 10.364 5.964 10.264 5.716 10.144C5.47601 10.032 5.24001 9.89201 5.00801 9.72401C4.72001 9.50801 4.48801 9.24801 4.31201 8.94401C4.144 8.63201 4.008 8.28001 3.90401 7.88801V10.9L2.08 11.068L0.880005 10.468V1.12001L2.70401 0.952006L3.90401 1.55201V2.99201C3.95201 2.76001 4.01601 2.51601 4.096 2.26001C4.18401 2.00401 4.29601 1.76401 4.432 1.54001C4.576 1.31601 4.76 1.12801 4.984 0.976006C5.208 0.824006 5.48 0.732006 5.8 0.700006L6.54401 0.628006L7.74401 1.22801V3.25601L7.18001 3.30401C7.02001 3.31201 6.90801 3.45601 6.84401 3.73601C6.78001 4.01601 6.72801 4.36801 6.68801 4.79201C6.66401 5.04001 6.61601 5.24801 6.54401 5.41601C6.47201 5.58401 6.38801 5.74001 6.29201 5.88401C6.40401 6.01201 6.49601 6.16401 6.56801 6.34001C6.64001 6.51601 6.688 6.74001 6.712 7.01201C6.728 7.19601 6.74401 7.35601 6.76 7.49201C6.77601 7.62801 6.79201 7.75201 6.80801 7.86401L7.984 8.45201V10.48L7.25201 10.54ZM6.08801 8.03201H6.028C5.836 8.03201 5.696 7.91201 5.608 7.67201C5.52 7.42401 5.44801 7.00801 5.39201 6.42401C5.36801 6.14401 5.31201 5.92001 5.22401 5.75201C5.14401 5.57601 5.048 5.42401 4.936 5.29601C5.048 5.14401 5.14 4.98401 5.212 4.81601C5.292 4.64801 5.344 4.43601 5.368 4.18001C5.408 3.71601 5.472 3.33601 5.56001 3.04001C5.656 2.74401 5.79201 2.59201 5.96801 2.58401L6.424 2.54801V0.760005L5.81201 0.820006C5.47601 0.852006 5.196 0.952006 4.972 1.12001C4.748 1.28801 4.56801 1.49601 4.432 1.74401C4.30401 1.98401 4.20401 2.24001 4.13201 2.51201C4.06001 2.77601 4.00401 3.03201 3.964 3.28001C3.93201 3.52001 3.9 3.72401 3.868 3.89201C3.836 4.09201 3.752 4.23201 3.616 4.31201C3.48001 4.38401 3.29601 4.42801 3.064 4.44401L2.58401 4.48001V1.08401L1 1.22801V10.336L2.58401 10.192V6.29201L3.05201 6.25601C3.07601 6.25601 3.1 6.25601 3.124 6.25601C3.148 6.24801 3.172 6.24401 3.196 6.24401C3.556 6.24401 3.76001 6.42401 3.80801 6.78401C3.85601 7.13601 3.92401 7.49201 4.01201 7.85201C4.10001 8.21201 4.22001 8.54401 4.372 8.84801C4.524 9.14401 4.72001 9.38401 4.96001 9.56801C5.208 9.75201 5.512 9.84401 5.872 9.84401C5.89601 9.84401 5.92001 9.84401 5.94401 9.84401C5.97601 9.83601 6.008 9.83201 6.04 9.83201L6.66401 9.77201V7.98401L6.08801 8.03201Z" fill="black"/>
<path d="M9.14801 7.13201C9.15601 6.46001 9.28 5.85601 9.52 5.32001C9.76 4.78401 10.08 4.36001 10.48 4.04801C10.88 3.73601 11.32 3.58001 11.8 3.58001C12.04 3.58001 12.276 3.62001 12.508 3.70001C12.724 3.77201 12.96 3.87601 13.216 4.01201C13.48 4.14001 13.724 4.27201 13.948 4.40801C14.26 4.59201 14.52 4.84401 14.728 5.16401C14.944 5.47601 15.104 5.82001 15.208 6.19601C15.312 6.57201 15.364 6.94401 15.364 7.31201C15.364 8.00001 15.232 8.60401 14.968 9.12401C14.704 9.64401 14.364 10.048 13.948 10.336C13.532 10.624 13.096 10.768 12.64 10.768C12.448 10.768 12.244 10.736 12.028 10.672C11.804 10.6 11.548 10.492 11.26 10.348C10.98 10.212 10.716 10.072 10.468 9.92801C10.18 9.75201 9.936 9.51601 9.736 9.22001C9.544 8.92401 9.39601 8.59601 9.29201 8.23601C9.19601 7.87601 9.14801 7.52001 9.14801 7.16801V7.13201ZM11.62 10.036C12.02 10.004 12.368 9.88401 12.664 9.67601C12.968 9.46001 13.22 9.18801 13.42 8.86001C13.628 8.53201 13.784 8.18401 13.888 7.81601C13.992 7.44001 14.044 7.07201 14.044 6.71201C14.044 6.36801 13.996 6.02001 13.9 5.66801C13.804 5.31601 13.66 4.99201 13.468 4.69601C13.284 4.40001 13.052 4.16001 12.772 3.97601C12.5 3.79201 12.18 3.70001 11.812 3.70001C11.78 3.70001 11.748 3.70401 11.716 3.71201C11.684 3.71201 11.652 3.71201 11.62 3.71201C11.22 3.74401 10.872 3.87601 10.576 4.10801C10.28 4.33201 10.036 4.61601 9.84401 4.96001C9.65201 5.29601 9.50801 5.65601 9.41201 6.04001C9.31601 6.42401 9.26801 6.78801 9.26801 7.13201C9.26801 7.46001 9.31201 7.79601 9.40001 8.14001C9.48801 8.48401 9.62001 8.80001 9.79601 9.08801C9.98001 9.37601 10.204 9.60801 10.468 9.78401C10.74 9.96001 11.06 10.048 11.428 10.048C11.46 10.048 11.492 10.044 11.524 10.036C11.556 10.036 11.588 10.036 11.62 10.036ZM11.584 8.32001C11.384 8.32001 11.204 8.20001 11.044 7.96001C10.884 7.71201 10.804 7.39201 10.804 7.00001C10.804 6.72801 10.844 6.47601 10.924 6.24401C11.004 6.01201 11.104 5.82401 11.224 5.68001C11.352 5.52801 11.484 5.44801 11.62 5.44001H11.656C11.872 5.44001 12.064 5.58001 12.232 5.86001C12.4 6.14001 12.484 6.47201 12.484 6.85601C12.484 7.24801 12.4 7.58801 12.232 7.87601C12.064 8.15601 11.86 8.30401 11.62 8.32001H11.584Z" fill="black"/>
<path d="M17.236 12.712V3.78401L19.06 3.62801L19.264 3.72401C19.472 3.64401 19.692 3.60401 19.924 3.60401C20.06 3.60401 20.196 3.62001 20.332 3.65201C20.468 3.67601 20.6 3.71201 20.728 3.76001C20.944 3.84001 21.172 3.94401 21.412 4.07201C21.66 4.19201 21.896 4.32401 22.12 4.46801C22.528 4.72401 22.832 5.10801 23.032 5.62001C23.24 6.12401 23.344 6.68801 23.344 7.31201C23.344 7.88801 23.248 8.43201 23.056 8.94401C22.864 9.45601 22.588 9.88001 22.228 10.216C21.868 10.552 21.44 10.744 20.944 10.792C20.912 10.792 20.884 10.792 20.86 10.792C20.836 10.8 20.812 10.804 20.788 10.804C20.684 10.804 20.588 10.792 20.5 10.768C20.412 10.752 20.332 10.736 20.26 10.72V13.156L18.436 13.312L17.236 12.712ZM18.94 9.95201C19.028 9.98401 19.12 10.012 19.216 10.036C19.32 10.06 19.444 10.072 19.588 10.072H19.732C20.212 10.032 20.62 9.85201 20.956 9.53201C21.3 9.20401 21.564 8.79201 21.748 8.29601C21.932 7.79201 22.024 7.26401 22.024 6.71201C22.024 6.16801 21.944 5.67201 21.784 5.22401C21.632 4.76801 21.4 4.40401 21.088 4.13201C20.776 3.86001 20.388 3.72401 19.924 3.72401C19.892 3.72401 19.86 3.72801 19.828 3.73601C19.796 3.73601 19.764 3.73601 19.732 3.73601C19.54 3.75201 19.368 3.80001 19.216 3.88001C19.072 3.95201 18.98 4.02001 18.94 4.08401V3.76001L17.356 3.89201V12.58L18.94 12.448V9.95201ZM19.648 8.28401C19.4 8.28401 19.22 8.17601 19.108 7.96001C18.996 7.74401 18.94 7.41601 18.94 6.97601C18.94 6.50401 19.008 6.15201 19.144 5.92001C19.288 5.68801 19.484 5.56401 19.732 5.54801H19.78C20.196 5.54801 20.404 5.98001 20.404 6.84401C20.404 7.29201 20.352 7.64001 20.248 7.88801C20.144 8.12801 19.972 8.26001 19.732 8.28401H19.648Z" fill="black"/>
<path d="M26.404 10.108V3.62801L30.292 3.28001L31.492 3.88001V5.89601L29.428 6.07601V10.54L27.604 10.708L26.404 10.108ZM30.172 5.18801V3.41201L26.524 3.73601V9.98801L28.108 9.84401V5.36801L30.172 5.18801Z" fill="black"/>
<path d="M37.18 10.18L37.024 10.6L35.224 10.756L34.024 10.156V3.68801L35.86 3.52001L36.7 3.94001L36.928 3.42401L38.5 3.29201L39.7 3.89201V10.372L37.864 10.516L37.18 10.18ZM37 3.54401L35.74 6.47201V3.65201L34.144 3.79601V10.024L35.74 9.89201L36.784 7.18001V9.79601L38.38 9.66401V3.42401L37 3.54401Z" fill="black"/>
<path d="M37 3.54401L35.74 6.47201V3.65201L34.144 3.79601V10.024L35.74 9.89201L36.784 7.18001V9.79601L38.38 9.66401V3.42401L37 3.54401Z" fill="white"/>
</svg>
